<svg width="27px" height="26px" viewBox="0 0 27 26" version="1.1"><title>Lobe YouTube</title><g stroke="none" stroke-width="1" fill="none" fill-rule="evenodd"><g transform="translate(-1233.000000, -112.000000)" fill="#FFFFFF" fill-rule="nonzero"><g transform="translate(60.000000, 0.000000)"><g transform="translate(107.500000, 105.000000)"><g transform="translate(947.000000, 0.000000)"><g transform="translate(112.000000, 0.000000)"><g transform="translate(6.500000, 7.000000)"><path d="M13.5,5.5 C15.5067016,5.5 17.5879746,5.57457132 19.7438189,5.72371397 L20.827954,5.80451586 C22.1698207,5.91158438 23.2760796,6.89936592 23.5338217,8.22059218 C23.8446072,9.81372812 24,11.4068641 24,13 C24,14.3939966 23.8810269,15.7879932 23.6430808,17.1819898 L23.5338165,17.7794162 C23.2760729,19.1006479 22.1698092,20.0884332 20.8279369,20.1955019 C18.2837919,20.3985006 15.8411463,20.5 13.5,20.5 C11.4932984,20.5 9.41202538,20.4254287 7.25618109,20.276286 L6.17204597,20.1954841 C4.83017932,20.0884156 3.72392035,19.1006341 3.46617835,17.7794078 C3.15539278,16.1862719 3,14.5931359 3,13 C3,11.6060034 3.11897305,10.2120068 3.35691915,8.81801022 L3.46618353,8.22058378 C3.72392707,6.89935214 4.83019085,5.91156683 6.17206307,5.8044981 C8.71620808,5.60149937 11.1588537,5.5 13.5,5.5 Z M12.5,9.86851709 C11.9477153,9.86851709 11.5,10.3162323 11.5,10.8685171 L11.5,10.8685171 L11.5,15.1314829 C11.5,15.3289079 11.558438,15.5219156 11.6679497,15.6861831 C11.9743022,16.1457118 12.5951715,16.2698857 13.0547002,15.9635332 L13.0547002,15.9635332 L16.2519246,13.8320503 C16.3617768,13.7588154 16.4560398,13.6645525 16.5292747,13.5547002 C16.8356271,13.0951715 16.7114532,12.4743022 16.2519246,12.1679497 L16.2519246,12.1679497 L13.0547002,10.0364668 C12.8904327,9.92695512 12.697425,9.86851709 12.5,9.86851709 Z"></path></g></g></g></g></g></g></g></svg>