<svg width="32px" height="32px" viewBox="0 0 32 32" version="1.1"><g stroke="none" stroke-width="1" fill="none" fill-rule="evenodd"><g transform="translate(-524.000000, -7107.000000)" fill="#FFFFFF" fill-rule="nonzero"><g transform="translate(143.000000, 7050.000000)"><g transform="translate(307.000000, 0.000000)"><g transform="translate(0.000000, 49.000000)"><g transform="translate(66.000000, 0.000000)"><g transform="translate(8.000000, 7.200000)"><path d="M25.7411765,10.345436 C26.9325321,9.73758177 27.8241551,8.67572361 28.2117647,7.403145 C27.2235294,8.38390865 25.1235294,8.70878661 25.1235294,8.70878661 C23.625633,6.88211914 21.0308099,6.37020781 18.9428502,7.48945119 C16.8548905,8.60869456 15.8635169,11.0429739 16.5814706,13.2877269 L16.3529412,13.2877269 C12.2830949,13.0198802 8.51568539,11.0613953 5.97647059,7.89352683 C5.97647059,7.89352683 3.01176471,11.8165814 7.45882353,14.7588724 C7.45882353,14.7588724 5.48235294,14.7588724 4.98823529,14.2684906 C4.98823529,14.2684906 4.49411765,17.2107815 8.94117647,19.1723088 C8.31338045,19.4560955 7.5925019,19.4560955 6.96470588,19.1723088 C6.96470588,21.0664086 8.95352941,22.6049816 11.4117647,22.6049816 C11.4117647,23.9596614 8.095,25.0568907 4,25.0568907 C10.4235294,29.4703272 25.7411765,28.4895635 26.7294118,11.8165814 L29.2,9.3646723 L25.7411765,10.345436 Z"></path></g></g></g></g></g></g></g></svg>