<svg width="27px" height="26px" viewBox="0 0 27 26" version="1.1"><title>Lobe Reddit</title><g stroke="none" stroke-width="1" fill="none" fill-rule="evenodd"><g transform="translate(-1121.000000, -112.000000)" fill="#FFFFFF"><g transform="translate(60.000000, 0.000000)"><g transform="translate(107.500000, 105.000000)"><g transform="translate(947.000000, 0.000000)"><g transform="translate(7.000000, 7.000000)"><path d="M22,12.500015 C22.0034128,13.8198808 21.6950409,15.1218955 21.0999729,16.300009 C19.6609343,19.1793322 16.7188874,20.998756 13.499985,21 C12.1801192,21.0034428 10.8781045,20.6950709 9.69999098,20.100003 L4,22 L5.89999699,16.300009 C5.30492907,15.1218955 4.99655717,13.8198808 5,12.500015 C5.00124397,9.28111262 6.82066775,6.33906566 9.69999098,4.90002706 C10.8781045,4.30495915 12.1801192,3.99658724 13.499985,4 L13.9999842,4 C18.3157868,4.2381278 21.7618722,7.68421323 22,12.0000158 L22,12.500015 L22,12.500015 Z"></path></g></g></g></g></g></g></svg>